<svg id="Capa_1" data-name="Capa 1" xmlns="http://www.w3.org/2000/svg" xmlns:xlink="http://www.w3.org/1999/xlink" viewBox="0 0 600 600"><defs><style>.cls-1{fill:url(#Degradado_sin_nombre_4);}.cls-2{fill:none;}</style><linearGradient id="Degradado_sin_nombre_4" x1="292.6" y1="566.83" x2="292.6" y2="39.15" gradientUnits="userSpaceOnUse"><stop offset="0" stop-color="#c5a059"/><stop offset="1" stop-color="#c5a059"/></linearGradient></defs><path class="cls-1" d="M463.43,188c0-4.12-2-6.89-5.89-7.85-3.13-.78-6.48-.69-9.61-1.48-1.76-.44-4.1-1.49-4.75-2.91-2.54-5.57-4.17-11.55-6.77-17.08a222.46,222.46,0,0,0-11.25-21.27,88.72,88.72,0,0,0-11-14.59c-8-8.53-15.95-17.34-25-24.69-12.32-10-26.76-16.8-41.51-22.6C344.58,74.33,344,72.82,344,70c.11-6,.05-12,0-18,0-6.18-5.32-13.07-12.81-12.88q-29.66.75-59.32,0c-7.16-.17-14.18,6.93-13.61,13.79.37,4.61,0,9.28,0,13.92,0,3-1,4.78-4.09,5.92C245.48,76,236.81,79.54,228.2,83.2c-14.74,6.28-27.44,15.74-38.58,27a257.85,257.85,0,0,0-21.81,25.85c-3.95,5.22-6.95,11.26-9.71,17.24-2.94,6.38-5.21,13.08-7.56,19.72-1.49,4.21-3.67,6.7-8.63,5.88a40.39,40.39,0,0,0-8.08,0c-6.06.21-12.18,4.34-12,12.4.42,20.51.46,41,0,61.56-.18,7.62,6.57,13.19,13.09,13.08,3.9-.07,7.86-.42,11.66.2a8.92,8.92,0,0,1,5.71,3.82c2.13,3.79,3.32,8.1,4.95,12.17,5.86,14.59,15,27.2,25.36,38.69a139.16,139.16,0,0,0,36.87,29.36c9.49,5.16,18.86,10.31,29.45,12.93,8.82,2.2,9.45,3.28,9.45,12.59q0,43.82,0,87.64h0q0,44.94,0,89.89c0,10.7,4.2,12.9,12.79,13.19,20.21.66,40.45.38,60.67.13,4.87-.06,9.88-1.36,11.45-7.17a25.7,25.7,0,0,0,.76-6.61q.06-88.54.05-177.09c0-3.14-.17-6.31.13-9.43a4.87,4.87,0,0,1,2-3.45c3.82-1.85,8-3,11.77-4.93,7-3.51,14.06-7.06,20.76-11.14A89.2,89.2,0,0,0,393,336.08c8.53-7.92,17.29-15.74,24.69-24.65,8.68-10.44,15.89-22.3,20.15-35.18,2.85-8.61,7.09-11.2,15.56-10.56,5.75.43,9.9-4.2,9.92-9.81C463.48,233.26,463.41,210.64,463.43,188ZM344.08,97.75c0-1.46.12-2.92.23-5.54a132.08,132.08,0,0,1,50.95,33.36,130.3,130.3,0,0,1,31.17,52.65,38.16,38.16,0,0,1-4.42.56q-21.09,0-42.18,0c-3.2,0-5.12-.78-7.26-4.13-6-9.37-13.43-17.74-23-23.76-3.82-2.39-5.68-5.28-5.58-10.07C344.26,126.47,344.06,112.11,344.08,97.75Zm10.65,80.09c-10.17,2.57-11.63,1.18-9-9.36C348.58,171.45,351.45,174.42,354.73,177.84Zm-96.55-2.37c-.2,1.22-1.78,3-2.89,3.13a111,111,0,0,1-11.4.14c-.36-.63-.72-1.26-1.07-1.89,4-3.65,8-7.38,12.22-10.85.41-.33,3,.82,3.11,1.5A26,26,0,0,1,258.18,175.47Zm-85.79-14.15c8.47-16.84,19.42-31.83,33.86-44.16,9.59-8.18,19.71-15.45,31.46-20.24,5.16-2.11,10.24-4.43,15.4-6.56,4.08-1.69,5.17-1,5.2,3.49.07,9.89,0,19.78,0,29.66,0,5.25.13,10.49-.05,15.73-.11,3.51-1.43,5.93-5,8.06-11.73,7.1-21.63,16.3-28.75,28.24-.8,1.34-2.6,3-3.95,3-17.92.2-35.85.14-55,.14C168.12,172.22,169.77,166.52,172.39,161.32Zm85.94,181.79c0,5.65-1.36,6.06-6.77,4.05-11.62-4.31-22.78-9.53-32.93-16.56a155.61,155.61,0,0,1-17.93-14.81A135.63,135.63,0,0,1,176.75,285a127.32,127.32,0,0,1-7.45-16c-1.24-3,1.3-3,3.3-3,7.94,0,15.88,0,23.81,0,6,0,12.06.61,18-.15,7.21-.94,11.23,2.63,14.76,7.94,6,9,14,15.87,23.22,21.32,4,2.38,6.11,5.07,6,9.84C258.21,317.65,258.36,330.38,258.33,343.11Zm-.48-66.61a4.58,4.58,0,0,1-4.3-.37c-3-2.62-5.59-5.68-8.34-8.56l.39-1.22c3.55,0,7.14-.35,10.62.14C258.17,266.77,259.58,275.37,257.85,276.5Zm164.47-4.82c-2,4.56-3.95,9.26-6.76,13.32-6.26,9.05-12.38,18.35-19.82,26.37-7,7.48-15.21,13.92-23.55,19.91-6.79,4.88-14.49,8.5-21.91,12.47-1.58.84-3.65.75-6,1.18-.09-2.16-.23-3.76-.23-5.36,0-11.68.63-23.4-.25-35-.56-7.33,3.54-10.45,8.15-14.21a138.41,138.41,0,0,0,12.61-11.73c3.19-3.36,5.69-7.37,8.83-10.78a7.11,7.11,0,0,1,4.73-1.79c13.78-.15,27.55-.12,41.32-.07C423.15,266,424.09,267.65,422.32,271.68Zm-77.38-4c.94-1.38,3.8-1.45,5.81-2.09l1.32,1.9-6.22,7.27-1.58-.48C344.42,272,343.84,269.27,344.94,267.67Zm97.8-19.59q-49.67-.22-99.32,0c-3,0-6.51.3-9,1.78S330,254.3,328.56,257c-.89,1.69-.51,4.11-.51,6.19q0,35.28,0,70.57,0,103.56,0,207.14c0,7.77-.08,7.85-7.72,7.85-12.43,0-24.86,0-37.29,0-6,0-6.48-.54-6.48-6.33q0-69.88,0-139.78h0q0-68.76,0-137.52a28.48,28.48,0,0,0-.82-7.94C273.65,250,268,248,261.24,248h-115c-6.43,0-6.42,0-6.42-6.42,0-13.34.09-26.67-.06-40-.05-4,1.17-5,5.26-4.8,7.3.43,14.66-.09,22-.09,31.76,0,63.52-.21,95.27.09,10.38.1,14-3.26,14.16-14.27.46-39.69.18-79.39.15-119.09,0-6.2-.05-6.24,6-6.25,13.33,0,26.67.15,40-.11,4.36-.09,5.58,1.28,5.56,5.59-.14,37.75-.08,75.5-.07,113.25,0,3.14.1,6.29.06,9.44-.09,6.46,4.18,11.56,12,11.48,33.85-.35,67.7-.15,101.55-.15,6.08,0,6.12,0,6.12,5.86,0,13.48-.1,27,.07,40.45C447.91,246.84,446.74,248.1,442.74,248.08Z"/><path class="cls-2" d="M447.86,243c.05,3.87-1.12,5.13-5.12,5.11q-49.67-.22-99.32,0c-3,0-6.51.3-9,1.78S330,254.3,328.56,257c-.89,1.69-.51,4.11-.51,6.19q0,35.28,0,70.57,0,103.56,0,207.14c0,7.77-.08,7.85-7.72,7.85-12.43,0-24.86,0-37.29,0-6,0-6.48-.54-6.48-6.33q0-69.88,0-139.78h0q0-68.76,0-137.52a28.48,28.48,0,0,0-.82-7.94C273.65,250,268,248,261.24,248h-115c-6.43,0-6.42,0-6.42-6.42,0-13.34.09-26.67-.06-40-.05-4,1.17-5,5.26-4.8,7.3.43,14.66-.09,22-.09,31.76,0,63.52-.21,95.27.09,10.38.1,14-3.26,14.16-14.27.46-39.69.18-79.39.15-119.09,0-6.2-.05-6.24,6-6.25,13.33,0,26.67.15,40-.11,4.36-.09,5.58,1.28,5.56,5.59-.14,37.75-.08,75.5-.07,113.25,0,3.14.1,6.29.06,9.44-.09,6.46,4.18,11.56,12,11.48,33.85-.35,67.7-.15,101.55-.15,6.08,0,6.12,0,6.12,5.86C447.81,216,447.69,229.49,447.86,243Z"/><path class="cls-2" d="M258.3,139.24c-.11,3.51-1.43,5.93-5,8.06-11.73,7.1-21.63,16.3-28.75,28.24-.8,1.34-2.6,3-3.95,3-17.92.2-35.85.14-55,.14,2.46-6.42,4.11-12.12,6.73-17.32,8.47-16.84,19.42-31.83,33.86-44.16,9.59-8.18,19.71-15.45,31.46-20.24,5.16-2.11,10.24-4.43,15.4-6.56,4.08-1.69,5.17-1,5.2,3.49.07,9.89,0,19.78,0,29.66C258.35,128.76,258.48,134,258.3,139.24Z"/><path class="cls-2" d="M258.33,343.11c0,5.65-1.36,6.06-6.77,4.05-11.62-4.31-22.78-9.53-32.93-16.56a155.61,155.61,0,0,1-17.93-14.81A135.63,135.63,0,0,1,176.75,285a127.32,127.32,0,0,1-7.45-16c-1.24-3,1.3-3,3.3-3,7.94,0,15.88,0,23.81,0,6,0,12.06.61,18-.15,7.21-.94,11.23,2.63,14.76,7.94,6,9,14,15.87,23.22,21.32,4,2.38,6.11,5.07,6,9.84C258.21,317.65,258.36,330.38,258.33,343.11Z"/><path class="cls-2" d="M426.43,178.22a38.16,38.16,0,0,1-4.42.56q-21.09,0-42.18,0c-3.2,0-5.12-.78-7.26-4.13-6-9.37-13.43-17.74-23-23.76-3.82-2.39-5.68-5.28-5.58-10.07.31-14.36.11-28.72.13-43.08,0-1.46.12-2.92.23-5.54a132.08,132.08,0,0,1,50.95,33.36A130.3,130.3,0,0,1,426.43,178.22Z"/><path class="cls-2" d="M422.32,271.68c-2,4.56-3.95,9.26-6.76,13.32-6.26,9.05-12.38,18.35-19.82,26.37-7,7.48-15.21,13.92-23.55,19.91-6.79,4.88-14.49,8.5-21.91,12.47-1.58.84-3.65.75-6,1.18-.09-2.16-.23-3.76-.23-5.36,0-11.68.63-23.4-.25-35-.56-7.33,3.54-10.45,8.15-14.21a138.41,138.41,0,0,0,12.61-11.73c3.19-3.36,5.69-7.37,8.83-10.78a7.11,7.11,0,0,1,4.73-1.79c13.78-.15,27.55-.12,41.32-.07C423.15,266,424.09,267.65,422.32,271.68Z"/><path class="cls-2" d="M258.18,175.47c-.2,1.22-1.78,3-2.89,3.13a111,111,0,0,1-11.4.14c-.36-.63-.72-1.26-1.07-1.89,4-3.65,8-7.38,12.22-10.85.41-.33,3,.82,3.11,1.5A26,26,0,0,1,258.18,175.47Z"/><path class="cls-2" d="M257.85,276.5a4.58,4.58,0,0,1-4.3-.37c-3-2.62-5.59-5.68-8.34-8.56l.39-1.22c3.55,0,7.14-.35,10.62.14C258.17,266.77,259.58,275.37,257.85,276.5Z"/><path class="cls-2" d="M354.73,177.84c-10.17,2.57-11.63,1.18-9-9.36C348.58,171.45,351.45,174.42,354.73,177.84Z"/><path class="cls-2" d="M352.07,267.48l-6.22,7.27-1.58-.48c.15-2.25-.43-5,.67-6.6.94-1.38,3.8-1.45,5.81-2.09Z"/></svg>